<?xml version="1.0" encoding="utf-8"?>
<!-- Generator: Adobe Illustrator 24.3.0, SVG Export Plug-In . SVG Version: 6.00 Build 0)  -->
<svg version="1.1" id="Layer_1" xmlns="http://www.w3.org/2000/svg" xmlns:xlink="http://www.w3.org/1999/xlink" x="0px" y="0px"
	 viewBox="0 0 105.7 35.3" style="enable-background:new 0 0 105.7 35.3;" xml:space="preserve">
<style type="text/css">
	.st0{fill:#ED1E3A;}
</style>
<g>
	<path class="st0" d="M15.1,0.8v13.8h-2.5v-1c-0.7,0.9-1.8,1.4-2.9,1.3c-2.6,0-4.6-2.1-4.6-5.1s2-5.1,4.6-5.1c1.1,0,2.2,0.4,2.9,1.2
		V0.8H15.1z M12.7,9.8c0.1-1.4-1-2.6-2.4-2.7C8.8,7,7.6,8.1,7.5,9.5c0,0.1,0,0.2,0,0.3c-0.2,1.4,0.9,2.7,2.3,2.8
		c1.4,0.2,2.7-0.9,2.8-2.3C12.7,10.2,12.7,10,12.7,9.8z"/>
	<path class="st0" d="M17.8,2.3c-0.1-0.8,0.5-1.5,1.3-1.6s1.5,0.5,1.6,1.3c0,0.1,0,0.2,0,0.2c-0.1,0.8-0.8,1.4-1.6,1.3
		C18.4,3.5,17.8,3,17.8,2.3z M20.5,14.7H18V5h2.5V14.7z"/>
	<path class="st0" d="M27.5,16.6c1.3,0.2,2.5-0.8,2.6-2.1c0-0.2,0-0.3,0-0.5v-0.8c-0.7,0.8-1.8,1.3-2.9,1.3c-2.5,0-4.5-2.1-4.5-4.7
		c0-0.1,0-0.2,0-0.2c-0.1-2.5,1.8-4.7,4.3-4.8c0,0,0.1,0,0.1,0c1.1-0.1,2.2,0.4,2.9,1.2v-1h2.5v9c0,3.8-2.6,4.9-5,4.9
		c-1.5,0.1-3-0.4-4.2-1.3l1.3-1.9C25.5,16.3,26.4,16.6,27.5,16.6z M30.1,9.6c0.1-1.4-1-2.6-2.3-2.6c-1.4-0.1-2.6,1-2.6,2.3
		c0,0.1,0,0.2,0,0.3c-0.1,1.4,1,2.6,2.3,2.6c1.4,0.1,2.6-1,2.6-2.3C30.1,9.8,30.1,9.7,30.1,9.6z"/>
	<path class="st0" d="M35.2,2.3c-0.1-0.8,0.5-1.5,1.3-1.6c0.8-0.1,1.5,0.5,1.6,1.3c0,0.1,0,0.2,0,0.2c-0.1,0.8-0.8,1.4-1.6,1.3
		C35.9,3.5,35.3,3,35.2,2.3z M37.9,14.7h-2.5V5h2.5L37.9,14.7z"/>
	<path class="st0" d="M39.8,5h1.7V2.5h2.5V5h2.6v2.2H44v4.1c0,0.9,0.4,1.3,1.1,1.3c0.4,0,0.8-0.2,1.1-0.5l1.1,1.8
		c-0.7,0.7-1.7,1-2.6,1c-2,0-3.2-1.2-3.2-3.6V7.2h-1.7V5z"/>
	<path class="st0" d="M55.5,13.6c-0.7,0.9-1.8,1.4-2.9,1.3c-2.6,0-4.6-2.1-4.6-5.1s2-5.1,4.6-5.1c1.1,0,2.2,0.4,2.9,1.2V5H58v9.6
		h-2.5L55.5,13.6z M55.5,9.8c0.1-1.4-0.9-2.7-2.3-2.8c-1.4-0.1-2.7,0.9-2.8,2.3c0,0.1,0,0.3,0,0.4c-0.1,1.4,0.9,2.7,2.3,2.8
		c1.4,0.1,2.7-0.9,2.8-2.3C55.6,10.1,55.6,10,55.5,9.8z"/>
	<path class="st0" d="M60.9,0.8h2.5v13.8h-2.5V0.8z"/>
	<path class="st0" d="M27.2,32.7c1.3,0.2,2.5-0.8,2.6-2.1c0-0.2,0-0.3,0-0.5v-0.8c-0.7,0.8-1.8,1.3-2.9,1.3c-2.5,0-4.5-2.1-4.5-4.7
		c0-0.1,0-0.2,0-0.2c-0.1-2.5,1.8-4.7,4.3-4.8c0,0,0.1,0,0.1,0c1.1-0.1,2.2,0.4,2.9,1.2v-1h2.5v9c0,3.8-2.6,4.9-5,4.9
		c-1.5,0.1-3-0.4-4.2-1.3l1.2-1.9C25.1,32.4,26.1,32.7,27.2,32.7z M29.8,25.7c0-1.4-1.2-2.4-2.6-2.4c-1.4,0-2.4,1.2-2.4,2.6
		c0,1.3,1.1,2.4,2.5,2.4C28.7,28.3,29.8,27.2,29.8,25.7C29.8,25.8,29.8,25.7,29.8,25.7z"/>
	<path class="st0" d="M37.6,30.7h-2.5v-9.6h2.5v1c0.5-0.8,1.4-1.3,2.4-1.3c0.6,0,1.1,0.2,1.6,0.5l-1,2.3c-0.4-0.3-0.8-0.4-1.3-0.4
		c-1,0-1.6,0.8-1.6,2.1V30.7z"/>
	<path class="st0" d="M49.4,29.7c-0.7,0.9-1.8,1.4-2.9,1.3c-2.6,0-4.6-2.1-4.6-5.1s2-5.1,4.6-5.1c1.1,0,2.2,0.4,2.9,1.2v-1h2.5v9.6
		h-2.5V29.7z M49.4,25.9c0.1-1.4-1-2.6-2.4-2.7c-1.4-0.1-2.6,1-2.7,2.4c0,0.1,0,0.2,0,0.3c-0.2,1.4,0.9,2.7,2.3,2.8
		c1.4,0.2,2.7-0.9,2.8-2.3C49.5,26.3,49.5,26.1,49.4,25.9z"/>
	<path class="st0" d="M57.3,21.1v1c0.7-0.9,1.8-1.4,2.9-1.3c2.6,0,4.6,2.1,4.6,5.1s-2,5.2-4.6,5.2c-1.1,0-2.2-0.4-2.9-1.2v4.9h-2.5
		V21.1H57.3z M57.3,25.9c-0.1,1.4,1,2.6,2.4,2.7c1.4,0.1,2.6-1,2.7-2.4c0-0.1,0-0.2,0-0.3c0.1-1.4-1-2.6-2.4-2.7
		c-1.4-0.1-2.6,1-2.7,2.4C57.2,25.7,57.2,25.8,57.3,25.9z"/>
	<path class="st0" d="M69.5,30.7h-2.5V16.9h2.5V22c0.7-0.8,1.7-1.3,2.7-1.2c2.2,0,3.7,1.6,3.7,4.1v5.9h-2.4v-5.5c0-1.1-0.9-2-2-2
		c-1.1,0-2,0.9-2,2L69.5,30.7L69.5,30.7z"/>
	<path class="st0" d="M78.5,18.4c-0.1-0.8,0.5-1.5,1.3-1.6c0.8-0.1,1.5,0.5,1.6,1.3c0,0.1,0,0.2,0,0.2c-0.1,0.8-0.8,1.4-1.6,1.3
		C79.1,19.6,78.5,19.1,78.5,18.4z M81.1,30.7h-2.5v-9.6h2.5V30.7z"/>
	<path class="st0" d="M84,16.9h2.5v7.7h1.2l2.5-3.5h3l-3.3,4.5l3.6,5.2h-3.1l-2.6-3.9h-1.2v3.9H84V16.9z"/>
	<path class="st0" d="M101.9,28c0,1.6-1.4,3-4,3c-1.5,0.1-3-0.5-4-1.6l1.4-1.6c0.7,0.8,1.7,1.3,2.8,1.3c1,0,1.4-0.4,1.4-1
		c0-1.7-5.2-0.9-5.2-4.4c0-1.5,1.2-2.9,3.7-2.9c1.5-0.1,2.9,0.5,3.8,1.6l-1.4,1.5c-0.6-0.7-1.5-1.1-2.4-1.1c-0.8,0-1.3,0.4-1.3,0.9
		C96.7,25.4,101.9,24.4,101.9,28z"/>
	<rect x="5.5" y="20.2" class="st0" width="14.8" height="2.4"/>
</g>
</svg>
